<svg width="318" height="66" viewBox="0 0 318 66" fill="none" xmlns="http://www.w3.org/2000/svg">
<path fill-rule="evenodd" clip-rule="evenodd" d="M141.479 22.5354C152.995 22.5354 162.33 31.8775 162.33 43.4016C162.33 54.9257 152.995 64.2677 141.479 64.2677C129.963 64.2677 120.628 54.9257 120.628 43.4016C120.628 31.8775 129.963 22.5354 141.479 22.5354Z" fill="#FF5106"/>
<path fill-rule="evenodd" clip-rule="evenodd" d="M124.829 20.8143C134.819 13.629 146.551 11.8844 158.334 20.8661L162.33 15.529C150.53 6.30555 133.336 5.60537 120.628 15.529C122.028 17.2908 123.428 19.0525 124.829 20.8143Z" fill="#1E1815"/>
<path fill-rule="evenodd" clip-rule="evenodd" d="M189.854 22.5354C201.369 22.5354 210.705 31.8775 210.705 43.4016C210.705 54.9257 201.369 64.2677 189.854 64.2677C178.338 64.2677 169.002 54.9257 169.002 43.4016C169.002 31.8775 178.338 22.5354 189.854 22.5354Z" fill="#FF5106"/>
<path fill-rule="evenodd" clip-rule="evenodd" d="M173.203 20.8143C183.193 13.629 194.925 11.8844 206.709 20.8661L210.705 15.529C198.904 6.30555 181.71 5.60537 169.002 15.529C170.403 17.2908 171.803 19.0525 173.203 20.8143Z" fill="#1E1815"/>
<path d="M0.834595 15.4409H10.1425V39.1031L34.9887 15.4409H48.2L26.5816 35.8731L48.2 64.2677H36.8653L20.051 42.1079L10.1425 51.4976V64.2677H0.834595V15.4409Z" fill="#1E1815"/>
<path d="M59.8068 15.4409H69.1147V35.4224H96.8884V15.4409H106.196V64.2677H96.8884V44.2112H69.1147V64.2677H59.8068V15.4409Z" fill="#1E1815"/>
<path d="M220.227 15.4409H228.559L243.121 35.9482H243.797L258.209 15.4409H266.616V64.2677H257.308V30.089H257.083C256.433 32.2924 255.582 34.1203 254.531 35.5726L248.076 44.737H238.768L232.312 35.5726C231.211 34.1203 230.335 32.2924 229.685 30.089H229.535V64.2677H220.227V15.4409Z" fill="#1E1815"/>
<path d="M281.985 15.4409H291.292V64.2677H281.985V15.4409Z" fill="#1E1815"/>
<path fill-rule="evenodd" clip-rule="evenodd" d="M0 14.6063H10.976V37.1567L34.6547 14.6063H50.2973L27.6991 35.9644L49.8834 65.1024H36.4508L19.9486 43.3539L10.976 51.8567V65.1024H0V14.6063ZM10.142 51.4976L20.0504 42.1079L36.8648 64.2677H48.1994L26.581 35.8731L48.1994 15.4409H34.9882L10.142 39.1031V15.4409H0.834044V64.2677H10.142V51.4976ZM58.9722 14.6063H69.9482V34.5877H96.0538V14.6063H107.03V65.1024H96.0538V45.0458H69.9482V65.1024H58.9722V14.6063ZM69.1142 44.2112H96.8878V64.2677H106.196V15.4409H96.8878V35.4224H69.1142V15.4409H59.8062V64.2677H69.1142V44.2112ZM219.392 14.6063H228.989L243.457 34.9805L257.776 14.6063H267.45V65.1024H256.474V33.9589C256.091 34.7202 255.67 35.4201 255.21 36.0569C255.209 36.0587 255.207 36.0604 255.206 36.0621L248.507 45.5716H238.335L231.638 36.065C231.174 35.4522 230.752 34.7811 230.368 34.0531V65.1024H219.392V14.6063ZM229.534 30.089H229.684C229.89 30.785 230.118 31.4436 230.368 32.0647C230.911 33.4098 231.558 34.5791 232.312 35.5726L238.767 44.737H248.075L254.53 35.5726C255.28 34.5367 255.928 33.3096 256.474 31.8915C256.693 31.3215 256.896 30.7207 257.083 30.089H257.308V64.2677H266.616V15.4409H258.209L243.796 35.9482H243.121L228.558 15.4409H220.226V64.2677H229.534V30.089ZM281.15 14.6063H292.126V65.1024H281.15V14.6063ZM281.984 15.4409V64.2677H291.292V15.4409H281.984Z" fill="#1E1815"/>
<path d="M302.559 12H303.861V5.13921H306.991V3.94984H299.417V5.13921H302.559V12ZM308.77 12H310.073V6.04063L312.101 8.76992H312.99L315.043 6.02811V12H316.345V3.94984H315.13L312.576 7.38024L309.972 3.94984H308.77V12Z" fill="#1E1815"/>
</svg>
